<svg width="32" height="32" viewBox="0 0 32 32" fill="none" xmlns="http://www.w3.org/2000/svg">
<rect x="0.25" y="0.25" width="31.5" height="31.5" rx="15.75" stroke="#35352F" stroke-opacity="0.5" stroke-width="0.5"/>
<g clip-path="url(#clip0_355_387)">
<path d="M15.6 15.6C15.0696 15.6 14.5609 15.3893 14.1858 15.0142C13.8107 14.6391 13.6 14.1304 13.6 13.6C13.6 13.0696 13.8107 12.5609 14.1858 12.1858C14.5609 11.8107 15.0696 11.6 15.6 11.6C16.1304 11.6 16.6391 11.8107 17.0142 12.1858C17.3893 12.5609 17.6 13.0696 17.6 13.6C17.6 13.8626 17.5483 14.1227 17.4478 14.3654C17.3472 14.608 17.1999 14.8285 17.0142 15.0142C16.8285 15.1999 16.608 15.3472 16.3654 15.4478C16.1227 15.5483 15.8626 15.6 15.6 15.6ZM15.6 8C14.1148 8 12.6904 8.59 11.6402 9.6402C10.59 10.6904 10 12.1148 10 13.6C10 17.8 15.6 24 15.6 24C15.6 24 21.2 17.8 21.2 13.6C21.2 12.1148 20.61 10.6904 19.5598 9.6402C18.5096 8.59 17.0852 8 15.6 8Z" fill="#35352F"/>
</g>
<defs>
<clipPath id="clip0_355_387">
<rect width="11.2" height="16" fill="white" transform="translate(10 8)"/>
</clipPath>
</defs>
</svg>
